<?xml version="1.0" standalone="no"?><!DOCTYPE svg PUBLIC "-//W3C//DTD SVG 1.1//EN" "http://www.w3.org/Graphics/SVG/1.1/DTD/svg11.dtd"><svg t="1663733916982" class="icon" viewBox="0 0 1024 1024" version="1.1" xmlns="http://www.w3.org/2000/svg" p-id="2739" xmlns:xlink="http://www.w3.org/1999/xlink" width="200" height="200"><path d="M875.571725 1001.561043H203.719185c-63.223235 0-114.678317-51.544066-114.678317-114.900777V115.590404c0-63.356711 51.455082-114.900777 114.678317-114.900777h671.85254a51.076899 51.076899 0 0 1 50.965669 51.076899v898.717618a51.076899 51.076899 0 0 1-50.965669 51.076899z m-10.188684-939.583586H203.719185a53.612947 53.612947 0 0 0-53.501717 53.612947v656.169085h312.556809a20.466353 20.466353 0 0 1 20.377369 20.444107v10.210931a20.466353 20.466353 0 0 1-20.377369 20.421861H150.217468v63.823878a53.612947 53.612947 0 0 0 53.501717 53.612948h661.663856V61.977457zM470.426913 634.4792c-99.773473 0-180.927013-81.309262-180.927013-181.28295 0-99.951441 81.15354-181.282949 180.927013-181.282949 99.751226 0 180.904767 81.331508 180.904767 181.282949a180.370862 180.370862 0 0 1-37.551309 110.140126l141.48479 141.773989a20.510845 20.510845 0 0 1 0 28.897601l-7.18547 7.207715a20.377369 20.377369 0 0 1-28.830862 0L577.385855 599.085756a179.570005 179.570005 0 0 1-106.958942 35.393444z m0-311.489c-71.654483 0-129.961344 58.418091-129.961344 130.20605 0 71.810205 58.306861 130.228296 129.961344 130.228296 71.654483 0 129.939098-58.418091 129.939098-130.228296 0-71.787959-58.284615-130.20605-129.939098-130.20605z" p-id="2740"></path></svg>