<?xml version="1.0" standalone="no"?><!DOCTYPE svg PUBLIC "-//W3C//DTD SVG 1.1//EN" "http://www.w3.org/Graphics/SVG/1.1/DTD/svg11.dtd"><svg t="1663397704656" class="icon" viewBox="0 0 1024 1024" version="1.1" xmlns="http://www.w3.org/2000/svg" p-id="13946" xmlns:xlink="http://www.w3.org/1999/xlink" width="200" height="200"><path d="M821.079404 273.429463l0-0.357134-70.462818 0 0-70.489424-0.035816 0c0-12.467963-10.106172-22.574135-22.574135-22.574135s-22.574135 10.106172-22.574135 22.574135l-0.00921 0 0 70.489424-70.489424 0 0 0.357134c-12.467963 0-22.574135 10.106172-22.574135 22.574135s10.106172 22.574135 22.574135 22.574135c0.552585 0 1.013073-0.274246 1.554402-0.314155l68.935022 0 0 70.464865 0.425695 0c1.088798 11.452843 10.420327 20.517289 22.158672 20.517289 11.738345 0 21.068851-9.064446 22.158672-20.517289l0.452301 0 0-70.464865 68.909439 0c0.541329 0.039909 1.001817 0.314155 1.554402 0.314155 12.467963 0 22.574135-10.106172 22.574135-22.574135S833.547367 273.429463 821.079404 273.429463z" p-id="13947" fill="#e6e6e6"></path><path d="M842.408175 529.013489 620.440781 529.013489c-49.857525 0-90.426499 40.568974-90.426499 90.457198L530.014282 841.437058c0 49.857525 40.568974 90.426499 90.426499 90.426499l221.966371 0c49.8872 0 90.457198-40.568974 90.457198-90.426499L932.86435 619.470687C932.86435 569.583486 892.295376 529.013489 842.408175 529.013489zM879.680057 841.437058c0 20.541849-16.730033 37.241182-37.271882 37.241182L620.440781 878.67824c-20.541849 0-37.241182-16.699334-37.241182-37.241182L583.199599 619.470687c0-20.541849 16.699334-37.271882 37.241182-37.271882l221.966371 0c20.541849 0 37.271882 16.730033 37.271882 37.271882L879.679034 841.437058z" p-id="13948" fill="#e6e6e6"></path><path d="M181.589778 497.096569l221.966371 0c49.857525 0 90.426499-40.568974 90.426499-90.457198L493.982648 184.673c0-49.857525-40.568974-90.426499-90.426499-90.426499L181.589778 94.246501c-49.857525 0-90.426499 40.568974-90.426499 90.426499l0 221.966371C91.163279 456.527594 131.732254 497.096569 181.589778 497.096569zM144.348596 184.673c0-20.541849 16.699334-37.241182 37.241182-37.241182l221.966371 0c20.541849 0 37.241182 16.699334 37.241182 37.241182l0 221.966371c0 20.541849-16.699334 37.271882-37.241182 37.271882L181.589778 443.911252c-20.541849 0-37.241182-16.730033-37.241182-37.271882L144.348596 184.673z" p-id="13949" fill="#e6e6e6"></path><path d="M406.975015 529.013489 185.008644 529.013489c-49.857525 0-90.426499 40.568974-90.426499 90.457198L94.582145 841.437058c0 49.857525 40.568974 90.426499 90.426499 90.426499l221.966371 0c49.8872 0 90.457198-40.568974 90.457198-90.426499L497.432213 619.470687C497.432213 569.583486 456.862215 529.013489 406.975015 529.013489zM444.246897 841.437058c0 20.541849-16.730033 37.241182-37.271882 37.241182L185.008644 878.67824c-20.541849 0-37.241182-16.699334-37.241182-37.241182L147.767462 619.470687c0-20.541849 16.699334-37.271882 37.241182-37.271882l221.966371 0c20.541849 0 37.271882 16.730033 37.271882 37.271882L444.246897 841.437058z" p-id="13950" fill="#e6e6e6"></path><path d="M842.408175 94.579075 620.440781 94.579075c-49.857525 0-90.426499 40.568974-90.426499 90.426499l0 221.966371c0 49.8872 40.568974 90.457198 90.426499 90.457198l221.966371 0c49.8872 0 90.457198-40.568974 90.457198-90.457198L932.86435 185.005574C932.86435 135.149073 892.295376 94.579075 842.408175 94.579075zM879.680057 406.972968c0 20.541849-16.730033 37.271882-37.271882 37.271882L620.440781 444.24485c-20.541849 0-37.241182-16.730033-37.241182-37.271882L583.199599 185.005574c0-20.541849 16.699334-37.241182 37.241182-37.241182l221.966371 0c20.541849 0 37.271882 16.699334 37.271882 37.241182L879.679034 406.972968z" p-id="13951" fill="#e6e6e6"></path><path d="M202.858174 318.246181l175.709861 0c12.467963 0 22.574135-10.106172 22.574135-22.574135 0-12.467963-10.106172-22.574135-22.574135-22.574135L202.858174 273.097912c-12.467963 0-22.574135 10.106172-22.574135 22.574135C180.283016 308.140009 190.389188 318.246181 202.858174 318.246181z" p-id="13952" fill="#e6e6e6"></path><path d="M821.079404 678.246325 645.369543 678.246325c-12.467963 0-22.574135 10.106172-22.574135 22.574135s10.106172 22.574135 22.574135 22.574135l175.709861 0c12.467963 0 22.574135-10.106172 22.574135-22.574135S833.547367 678.246325 821.079404 678.246325z" p-id="13953" fill="#e6e6e6"></path><path d="M821.079404 760.53447 645.369543 760.53447c-12.467963 0-22.574135 10.106172-22.574135 22.574135s10.106172 22.574135 22.574135 22.574135l175.709861 0c12.467963 0 22.574135-10.106172 22.574135-22.574135S833.547367 760.53447 821.079404 760.53447z" p-id="13954" fill="#e6e6e6"></path><path d="M358.833575 634.392538c-7.29822 0-13.456477 3.781116-17.467837 9.244548l-0.416486-0.416486-48.363498 48.365544-46.981011-46.956452c-3.985778-4.479011-9.633405-7.43125-16.101723-7.43125-12.021801 0-21.766746 9.744945-21.766746 21.766746 0 5.738701 2.323928 10.873652 5.952572 14.763239l-0.512676 0.512676 48.365544 48.388057-48.365544 48.365544 0.069585 0.068562c-3.919263 3.936659-6.351662 9.361205-6.351662 15.356756 0 12.025894 9.749038 21.774933 21.774933 21.774933 5.995551 0 11.419074-2.429329 15.356756-6.351662l0.169869 0.169869 48.390104-48.363498 48.363498 48.363498 0.48607-0.48607c3.730974 3.00238 8.274454 5.058203 13.43601 5.058203 12.021801 0 21.766746-9.744945 21.766746-21.766746 0-5.161556-2.054799-9.705036-5.058203-13.43601l0.38988-0.387833-48.390104-48.365544 48.390104-48.388057-0.332575-0.332575c5.462408-4.012384 9.242502-10.17064 9.242502-17.46886C380.879684 644.262326 371.009895 634.392538 358.833575 634.392538z" p-id="13955" fill="#e6e6e6"></path></svg>